<svg width="40" height="40" viewBox="0 0 40 40" fill="none" xmlns="http://www.w3.org/2000/svg">
<path d="M18.3315 3.25525C15.57 3.25525 13.3316 5.48858 13.3315 8.25525V10.0261H11.6648C10.1406 9.96475 7.80132 10.9604 6.92532 13.4116L4.99815 13.3594C4.07765 13.3594 3.33132 14.1039 3.33148 15.0261C3.33148 15.9482 4.07765 16.6936 4.99815 16.6919H6.66482V18.3586H4.99815C4.07765 18.3586 3.33132 19.1036 3.33148 20.0252C3.33148 20.9486 4.07765 21.6919 4.99815 21.6919H6.66482V23.3586H4.99815C4.07765 23.3586 3.33132 24.1036 3.33148 25.0252C3.33148 25.9486 4.07765 26.6936 4.99815 26.6919H6.66482V28.3586H4.99815C4.07765 28.3586 3.33132 29.1036 3.33148 30.0252C3.33148 30.9486 4.07765 31.6936 4.99815 31.6919H6.66482C6.66482 34.4536 8.90332 36.6936 11.6648 36.6919H23.3315C26.093 36.6919 28.3315 34.4536 28.3315 31.6919V30.0252L29.9982 29.9736C32.7597 29.9736 34.998 27.7402 34.9982 24.9736V8.25525C34.9982 5.48875 32.7595 3.25492 29.9982 3.25525L18.3315 3.25525ZM29.9982 6.58858C30.9187 6.58858 31.665 7.33308 31.6648 8.25525L31.6648 24.9219C31.6648 25.8436 30.9187 26.5886 29.9982 26.5886L28.3315 26.6402L28.3315 15.0261C28.3315 12.2646 26.093 10.0261 23.3315 10.0261H16.6648V8.30724C16.6648 7.38524 17.411 6.64058 18.3315 6.64058L29.9982 6.58858ZM11.6648 13.3594L23.3315 13.3594C24.252 13.3594 24.9982 14.1056 24.9982 15.0261L24.9982 29.9736V31.6919C24.9982 32.6136 24.252 33.3602 23.3315 33.3586H11.6648C10.7443 33.3586 9.99815 32.6136 9.99815 31.6919V29.9736L9.99815 28.3586L9.99815 15.0261C9.99815 14.5651 10.1653 14.1296 10.467 13.8283C10.7685 13.5266 11.2046 13.3594 11.6648 13.3594Z" fill="white"/>
</svg>
