<svg width="40" height="40" viewBox="0 0 40 40" fill="none" xmlns="http://www.w3.org/2000/svg">
<path d="M6.66392 4.98462C5.74342 4.98462 4.99725 5.73129 4.99725 6.65129L4.99725 28.318C4.99725 31.9996 7.98209 34.9846 11.6639 34.9846H33.3306C34.2506 34.9846 34.9972 34.2379 34.9972 33.3179C34.9972 32.3979 34.2506 31.6513 33.3306 31.6513L11.6639 31.6513C9.82292 31.6513 8.33059 30.1596 8.33059 28.318L8.33059 6.65129C8.33059 5.73129 7.58442 4.98462 6.66392 4.98462ZM23.3306 8.31795V11.6513L29.2672 11.6513L24.6322 16.2863C24.4822 16.438 24.0139 16.6513 23.7989 16.6513H21.1956C20.0973 16.6513 18.7422 17.1763 17.9656 17.953L12.1326 23.7863C11.4817 24.438 11.4817 25.5313 12.1326 26.1829C12.4581 26.5079 12.9041 26.6513 13.3306 26.6513C13.7571 26.6513 14.2031 26.5079 14.5286 26.1829L20.3623 20.3496C20.5123 20.1979 20.9806 19.9846 21.1956 19.9846H23.7989C24.8972 19.9846 26.2523 19.4596 27.0289 18.6829L31.6639 14.0479V19.9846H34.9972V9.98462C34.9972 9.06462 34.2506 8.31795 33.3306 8.31795L23.3306 8.31795Z" fill="white"/>
</svg>
