<svg width="40" height="40" viewBox="0 0 40 40" fill="none" xmlns="http://www.w3.org/2000/svg">
<path d="M10.0046 8.13818C9.57794 8.13818 9.13295 8.28153 8.80628 8.60653L6.67127 10.7432L6.20293 10.2732C5.55126 9.62319 4.45795 9.62319 3.80629 10.2732C3.15629 10.9249 3.15629 12.0182 3.80629 12.6698L5.47295 14.3365C6.12462 14.9865 7.21793 14.9865 7.8696 14.3365L11.2029 11.0032C11.8529 10.3515 11.8529 9.25819 11.2029 8.60653C10.8763 8.28153 10.4313 8.13818 10.0046 8.13818ZM16.6713 9.80485C15.7513 9.80485 15.0046 10.5515 15.0046 11.4715C15.0046 12.3915 15.7513 13.1382 16.6713 13.1382L35.0046 13.1382C35.9246 13.1382 36.6712 12.3915 36.6712 11.4715C36.6712 10.5515 35.9246 9.80485 35.0046 9.80485L16.6713 9.80485ZM10.0046 16.4715C9.57794 16.4715 9.13295 16.6148 8.80628 16.9398L6.67127 19.0765L6.20293 18.6065C5.55126 17.9565 4.45795 17.9565 3.80629 18.6065C3.15629 19.2582 3.15629 20.3515 3.80629 21.0032L5.47295 22.6698C6.12462 23.3198 7.21793 23.3198 7.8696 22.6698L11.2029 19.3365C11.8529 18.6848 11.8529 17.5915 11.2029 16.9398C10.8763 16.6148 10.4313 16.4715 10.0046 16.4715ZM16.6713 18.1382C15.7513 18.1382 15.0046 18.8848 15.0046 19.8048C15.0046 20.7248 15.7513 21.4715 16.6713 21.4715L35.0046 21.4715C35.9246 21.4715 36.6712 20.7248 36.6712 19.8048C36.6712 18.8848 35.9246 18.1382 35.0046 18.1382L16.6713 18.1382ZM10.0046 24.8048C9.57794 24.8048 9.13295 24.9482 8.80628 25.2732L6.67127 27.4098L6.20293 26.9398C5.55126 26.2898 4.45795 26.2898 3.80629 26.9398C3.15629 27.5915 3.15629 28.6848 3.80629 29.3365L5.47295 31.0031C6.12462 31.6531 7.21793 31.6531 7.8696 31.0031L11.2029 27.6698C11.8529 27.0181 11.8529 25.9248 11.2029 25.2732C10.8763 24.9482 10.4313 24.8048 10.0046 24.8048ZM16.6713 26.4715C15.7513 26.4715 15.0046 27.2182 15.0046 28.1382C15.0046 29.0582 15.7513 29.8048 16.6713 29.8048L35.0046 29.8048C35.9246 29.8048 36.6712 29.0582 36.6712 28.1382C36.6712 27.2182 35.9246 26.4715 35.0046 26.4715L16.6713 26.4715Z" fill="white"/>
</svg>
