<svg xmlns="http://www.w3.org/2000/svg" xmlns:xlink="http://www.w3.org/1999/xlink" width="778" 
zoomAndPan="magnify" viewBox="0 0 583.5 246.749995" height="329" preserveAspectRatio="xMidYMid meet" 
version="1.0"><defs><g/><clipPath id="d654d0372d"><path d="M 265.910156 92.285156 L 338.648438 92.285156 L 338.648438 154.523438 L 265.910156 154.523438 Z M 265.910156 92.285156 " clip-rule="nonzero"/></clipPath></defs><g fill="#f29166" fill-opacity="1"><g transform="translate(77.60921, 152.916469)"><g><path d="M 20.3125 -4.5625 L 20.3125 -46.46875 C 20.3125 -46.894531 20.097656 -47.109375 19.671875 -47.109375 L 8.640625 -47.109375 C 7.410156 -47.109375 6.34375 -47.5625 5.4375 -48.46875 C 4.53125 -49.375 4.078125 -50.441406 4.078125 -51.671875 L 4.078125 -53.828125 C 4.078125 -55.054688 4.53125 -56.125 5.4375 -57.03125 C 6.34375 -57.9375 7.410156 -58.390625 8.640625 -58.390625 L 45.90625 -58.390625 C 47.132812 -58.390625 48.203125 -57.9375 49.109375 -57.03125 C 50.015625 -56.125 50.46875 -55.054688 50.46875 -53.828125 L 50.46875 -51.671875 C 50.46875 -50.441406 50.015625 -49.375 49.109375 -48.46875 C 48.203125 -47.5625 47.132812 -47.109375 45.90625 -47.109375 L 34.875 -47.109375 C 34.445312 -47.109375 34.234375 -46.894531 34.234375 -46.46875 L 34.234375 -4.5625 C 34.234375 -3.332031 33.78125 -2.265625 32.875 -1.359375 C 31.96875 -0.453125 30.898438 0 29.671875 0 L 24.875 0 C 23.644531 0 22.578125 -0.453125 21.671875 -1.359375 C 20.765625 -2.265625 20.3125 -3.332031 20.3125 -4.5625 Z M 20.3125 -4.5625 "/></g></g></g><g fill="#f29166" fill-opacity="1"><g transform="translate(132.155394, 152.916469)"><g><path d="M 43.625 -43.1875 C 40.882812 -46.382812 37.035156 -47.984375 32.078125 -47.984375 C 27.117188 -47.984375 23.265625 -46.382812 20.515625 -43.1875 C 17.765625 -39.988281 16.390625 -35.320312 16.390625 -29.1875 C 16.390625 -23.0625 17.765625 -18.394531 20.515625 -15.1875 C 23.265625 -11.988281 27.117188 -10.390625 32.078125 -10.390625 C 37.035156 -10.390625 40.882812 -11.988281 43.625 -15.1875 C 46.375 -18.394531 47.75 -23.0625 47.75 -29.1875 C 47.75 -35.320312 46.375 -39.988281 43.625 -43.1875 Z M 53.625 -7.28125 C 48.269531 -1.894531 41.085938 0.796875 32.078125 0.796875 C 23.066406 0.796875 15.878906 -1.894531 10.515625 -7.28125 C 5.160156 -12.664062 2.484375 -19.96875 2.484375 -29.1875 C 2.484375 -38.414062 5.160156 -45.722656 10.515625 -51.109375 C 15.878906 -56.492188 23.066406 -59.1875 32.078125 -59.1875 C 41.085938 -59.1875 48.269531 -56.492188 53.625 -51.109375 C 58.988281 -45.722656 61.671875 -38.414062 61.671875 -29.1875 C 61.671875 -19.96875 58.988281 -12.664062 53.625 -7.28125 Z M 53.625 -7.28125 "/></g></g></g><g fill="#f29166" fill-opacity="1"><g transform="translate(196.299143, 152.916469)"><g/></g></g><g fill="#f29166" fill-opacity="1"><g transform="translate(221.172847, 152.916469)"><g><path d="M 19.671875 -23.203125 L 19.671875 -4.5625 C 19.671875 -3.332031 19.21875 -2.265625 18.3125 -1.359375 C 17.40625 -0.453125 16.335938 0 15.109375 0 L 10.640625 0 C 9.410156 0 8.34375 -0.453125 7.4375 -1.359375 C 6.53125 -2.265625 6.078125 -3.332031 6.078125 -4.5625 L 6.078125 -53.828125 C 6.078125 -55.054688 6.53125 -56.125 7.4375 -57.03125 C 8.34375 -57.9375 9.410156 -58.390625 10.640625 -58.390625 L 38.078125 -58.390625 C 39.296875 -58.390625 40.359375 -57.9375 41.265625 -57.03125 C 42.171875 -56.125 42.625 -55.054688 42.625 -53.828125 L 42.625 -51.984375 C 42.625 -50.765625 42.171875 -49.703125 41.265625 -48.796875 C 40.359375 -47.890625 39.296875 -47.4375 38.078125 -47.4375 L 20.390625 -47.4375 C 19.910156 -47.4375 19.671875 -47.222656 19.671875 -46.796875 L 19.671875 -34.875 C 19.671875 -34.394531 19.910156 -34.15625 20.390625 -34.15625 L 36.46875 -34.15625 C 37.695312 -34.15625 38.765625 -33.710938 39.671875 -32.828125 C 40.578125 -31.953125 41.03125 -30.898438 41.03125 -29.671875 L 41.03125 -28.390625 C 41.03125 -27.171875 40.578125 -26.117188 39.671875 -25.234375 C 38.765625 -24.359375 37.695312 -23.921875 36.46875 -23.921875 L 20.390625 -23.921875 C 19.910156 -23.921875 19.671875 -23.679688 19.671875 -23.203125 Z M 19.671875 -23.203125 "/></g></g></g><g fill="#f29166" fill-opacity="1"><g transform="translate(268.594996, 152.916469)"><g/></g></g><g fill="#f29166" fill-opacity="1"><g transform="translate(293.468699, 152.916469)"><g/></g></g><g fill="#f29166" fill-opacity="1"><g transform="translate(318.342403, 152.916469)"><g/></g></g><g fill="#f29166" fill-opacity="1"><g transform="translate(343.208338, 152.916469)"><g><path d="M 33.109375 0.796875 C 23.835938 0.796875 16.414062 -1.894531 10.84375 -7.28125 C 5.269531 -12.664062 2.484375 -19.96875 2.484375 -29.1875 C 2.484375 -38.519531 5.1875 -45.851562 10.59375 -51.1875 C 16.007812 -56.519531 23.515625 -59.1875 33.109375 -59.1875 C 38.609375 -59.1875 43.625 -58.117188 48.15625 -55.984375 C 49.320312 -55.453125 50.101562 -54.5625 50.5 -53.3125 C 50.90625 -52.0625 50.867188 -50.820312 50.390625 -49.59375 L 49.828125 -48.078125 C 49.398438 -46.953125 48.625 -46.203125 47.5 -45.828125 C 46.382812 -45.453125 45.296875 -45.535156 44.234375 -46.078125 C 41.140625 -47.515625 37.882812 -48.234375 34.46875 -48.234375 C 28.875 -48.234375 24.460938 -46.550781 21.234375 -43.1875 C 18.003906 -39.832031 16.390625 -35.164062 16.390625 -29.1875 C 16.390625 -23.320312 18.066406 -18.679688 21.421875 -15.265625 C 24.785156 -11.859375 29.132812 -10.15625 34.46875 -10.15625 C 37.882812 -10.15625 41.140625 -10.875 44.234375 -12.3125 C 45.296875 -12.851562 46.382812 -12.9375 47.5 -12.5625 C 48.625 -12.1875 49.398438 -11.4375 49.828125 -10.3125 L 50.390625 -8.796875 C 50.867188 -7.566406 50.90625 -6.328125 50.5 -5.078125 C 50.101562 -3.828125 49.320312 -2.9375 48.15625 -2.40625 C 43.625 -0.269531 38.609375 0.796875 33.109375 0.796875 Z M 33.109375 0.796875 "/></g></g></g><g fill="#f29166" fill-opacity="1"><g transform="translate(398.474335, 152.916469)"><g><path d="M 45.90625 -5.390625 C 41.90625 -1.265625 36.144531 0.796875 28.625 0.796875 C 21.113281 0.796875 15.34375 -1.265625 11.3125 -5.390625 C 7.289062 -9.523438 5.28125 -15.671875 5.28125 -23.828125 L 5.28125 -53.828125 C 5.28125 -55.054688 5.734375 -56.125 6.640625 -57.03125 C 7.546875 -57.9375 8.613281 -58.390625 9.84375 -58.390625 L 14.484375 -58.390625 C 15.703125 -58.390625 16.765625 -57.9375 17.671875 -57.03125 C 18.578125 -56.125 19.03125 -55.054688 19.03125 -53.828125 L 19.03125 -22.953125 C 19.03125 -14.421875 22.285156 -10.15625 28.796875 -10.15625 C 35.242188 -10.15625 38.46875 -14.421875 38.46875 -22.953125 L 38.46875 -53.828125 C 38.46875 -55.054688 38.921875 -56.125 39.828125 -57.03125 C 40.734375 -57.9375 41.800781 -58.390625 43.03125 -58.390625 L 47.4375 -58.390625 C 48.65625 -58.390625 49.703125 -57.9375 50.578125 -57.03125 C 51.460938 -56.125 51.90625 -55.054688 51.90625 -53.828125 L 51.90625 -23.828125 C 51.90625 -15.671875 49.90625 -9.523438 45.90625 -5.390625 Z M 45.90625 -5.390625 "/></g></g></g><g fill="#f29166" fill-opacity="1"><g transform="translate(455.659847, 152.916469)"><g><path d="M 23.921875 -9.84375 C 26.691406 -9.84375 28.78125 -10.414062 30.1875 -11.5625 C 31.601562 -12.707031 32.3125 -14.316406 32.3125 -16.390625 C 32.3125 -18.097656 31.75 -19.484375 30.625 -20.546875 C 29.507812 -21.617188 27.515625 -22.582031 24.640625 -23.4375 C 17.328125 -25.625 12.070312 -28.234375 8.875 -31.265625 C 5.675781 -34.304688 4.078125 -38.09375 4.078125 -42.625 C 4.078125 -47.695312 5.984375 -51.722656 9.796875 -54.703125 C 13.609375 -57.691406 18.953125 -59.1875 25.828125 -59.1875 C 31.160156 -59.1875 36.125 -58.441406 40.71875 -56.953125 C 41.9375 -56.578125 42.835938 -55.800781 43.421875 -54.625 C 44.015625 -53.457031 44.148438 -52.234375 43.828125 -50.953125 L 43.4375 -49.1875 C 43.164062 -48.070312 42.507812 -47.242188 41.46875 -46.703125 C 40.425781 -46.171875 39.347656 -46.117188 38.234375 -46.546875 C 34.609375 -47.878906 30.632812 -48.546875 26.3125 -48.546875 C 23.539062 -48.546875 21.445312 -48.007812 20.03125 -46.9375 C 18.625 -45.875 17.921875 -44.4375 17.921875 -42.625 C 17.921875 -39.644531 20.160156 -37.515625 24.640625 -36.234375 C 32.578125 -33.941406 38.160156 -31.285156 41.390625 -28.265625 C 44.617188 -25.253906 46.234375 -21.378906 46.234375 -16.640625 C 46.234375 -10.984375 44.3125 -6.660156 40.46875 -3.671875 C 36.632812 -0.691406 30.957031 0.796875 23.4375 0.796875 C 18.15625 0.796875 12.957031 -0.347656 7.84375 -2.640625 C 6.613281 -3.171875 5.742188 -4.0625 5.234375 -5.3125 C 4.734375 -6.570312 4.695312 -7.84375 5.125 -9.125 L 5.671875 -11.125 C 5.992188 -12.1875 6.6875 -12.929688 7.75 -13.359375 C 8.820312 -13.785156 9.863281 -13.734375 10.875 -13.203125 C 15.351562 -10.960938 19.703125 -9.84375 23.921875 -9.84375 Z M 23.921875 -9.84375 "/></g></g></g><g clip-path="url(#d654d0372d)"><path fill="#2e7f7b" d="M 307.453125 92.285156 C 290.238281 92.285156 276.328125 106.21875 276.328125 123.402344 L 265.945312 123.402344 L 279.421875 136.871094 L 279.664062 137.375 L 293.628906 123.402344 L 283.246094 123.402344 C 283.246094 110.039062 294.097656 99.199219 307.472656 99.199219 C 320.847656 99.199219 331.695312 110.039062 331.695312 123.402344 C 331.695312 136.769531 320.847656 147.609375 307.472656 147.609375 C 300.777344 147.609375 294.738281 144.875 290.359375 140.503906 L 285.460938 145.394531 C 291.085938 151.03125 298.855469 154.523438 307.453125 154.523438 C 324.671875 154.523438 338.617188 140.589844 338.617188 123.402344 C 338.617188 106.21875 324.671875 92.285156 307.453125 92.285156 Z M 304.011719 109.574219 L 304.011719 126.863281 L 318.824219 135.644531 L 321.3125 131.441406 L 309.203125 124.269531 L 309.203125 109.574219 Z M 304.011719 109.574219 " fill-opacity="1" fill-rule="nonzero"/></g></svg>