<?xml version="1.0" encoding="UTF-8"?>
<!DOCTYPE svg PUBLIC "-//W3C//DTD SVG 1.1//EN" "http://www.w3.org/Graphics/SVG/1.1/DTD/svg11.dtd">
<svg xmlns="http://www.w3.org/2000/svg" version="1.1" width="1225px" height="214px" style="shape-rendering:geometricPrecision; text-rendering:geometricPrecision; image-rendering:optimizeQuality; fill-rule:evenodd; clip-rule:evenodd" xmlns:xlink="http://www.w3.org/1999/xlink">
<g><path style="opacity:1" fill="#2c7875" d="M 589.5,88.5 C 588.523,91.2869 588.19,94.2869 588.5,97.5C 598.348,97.1729 608.014,97.5062 617.5,98.5C 604.869,111.632 592.035,124.632 579,137.5C 566.634,123.967 553.8,110.967 540.5,98.5C 549.986,97.5062 559.652,97.1729 569.5,97.5C 569.5,94.8333 569.5,92.1667 569.5,89.5C 572.958,55.2053 590.291,30.7053 621.5,16C 661.851,1.00121 696.684,9.16787 726,40.5C 754.425,80.8938 753.091,120.227 722,158.5C 694.302,185.13 662.135,192.297 625.5,180C 613.672,175.323 603.339,168.49 594.5,159.5C 598.863,154.303 603.697,149.636 609,145.5C 637.864,169.631 668.031,171.465 699.5,151C 727.826,124.876 732.993,94.7096 715,60.5C 695.563,33.7013 669.729,24.2013 637.5,32C 610.485,41.5122 594.485,60.3456 589.5,88.5 Z"/></g>
<g><path style="opacity:1" fill="#eb8c63" d="M 228.5,180.5 C 226.485,179.076 224.152,178.41 221.5,178.5C 214.816,177.169 208.816,174.502 203.5,170.5C 203.027,169.094 202.027,168.427 200.5,168.5C 193.882,164.882 188.548,159.882 184.5,153.5C 184.446,151.368 183.446,150.035 181.5,149.5C 180.263,148.035 179.263,146.368 178.5,144.5C 178.715,142.821 178.048,141.821 176.5,141.5C 167.135,119.267 164.968,96.2668 170,72.5C 171.725,64.1377 174.892,56.4711 179.5,49.5C 180.906,49.0269 181.573,48.0269 181.5,46.5C 181.738,44.5956 182.738,43.2623 184.5,42.5C 185.906,42.0269 186.573,41.0269 186.5,39.5C 187.5,37.8333 188.833,36.5 190.5,35.5C 193.427,34.2427 195.761,32.2427 197.5,29.5C 203.039,24.5604 209.373,20.8937 216.5,18.5C 219.152,18.5905 221.485,17.9238 223.5,16.5C 226.152,16.5905 228.485,15.9238 230.5,14.5C 257.938,8.72574 283.271,13.5591 306.5,29C 327.133,47.28 336.8,70.28 335.5,98C 336.665,124.521 327.665,146.854 308.5,165C 291.753,177.777 272.753,183.944 251.5,183.5C 243.588,183.29 235.922,182.29 228.5,180.5 Z M 273.5,49.5 C 273.973,50.9063 274.973,51.573 276.5,51.5C 276.973,52.9063 277.973,53.573 279.5,53.5C 288.699,62.9041 293.866,74.2375 295,87.5C 296.386,100.462 295.052,113.129 291,125.5C 289.326,129.524 287.159,133.191 284.5,136.5C 282.738,137.262 281.738,138.596 281.5,140.5C 265.173,151.716 247.84,153.382 229.5,145.5C 228.71,144.599 227.71,143.932 226.5,143.5C 223.5,140.833 220.5,138.167 217.5,135.5C 217.573,133.973 216.906,132.973 215.5,132.5C 204.442,108.553 204.942,84.8866 217,61.5C 228.615,47.6261 243.448,42.4595 261.5,46C 265.547,47.072 269.547,48.2387 273.5,49.5 Z"/></g>
<g><path style="opacity:1" fill="#ea8c62" d="M 898.5,23.5 C 898.427,25.0269 899.094,26.0269 900.5,26.5C 902.095,28.8285 903.095,31.4952 903.5,34.5C 902.696,39.0792 901.196,43.4125 899,47.5C 895.257,51.2594 890.757,52.4261 885.5,51C 865.083,41.7656 845.083,42.4323 825.5,53C 808.33,68.8018 802.163,88.3018 807,111.5C 809.484,124.492 815.984,134.825 826.5,142.5C 826.821,144.048 827.821,144.715 829.5,144.5C 839.515,149.601 850.182,151.934 861.5,151.5C 865.489,151.884 869.155,151.217 872.5,149.5C 878.049,147.228 883.716,145.228 889.5,143.5C 894.088,143.587 897.588,145.587 900,149.5C 903.668,156.1 904.001,162.767 901,169.5C 894.812,174.902 887.646,178.402 879.5,180C 862.486,184.379 845.486,184.545 828.5,180.5C 826.485,179.076 824.152,178.41 821.5,178.5C 815.205,177.514 809.538,175.18 804.5,171.5C 804.027,170.094 803.027,169.427 801.5,169.5C 801.027,168.094 800.027,167.427 798.5,167.5C 798.027,166.094 797.027,165.427 795.5,165.5C 794.5,165.167 793.833,164.5 793.5,163.5C 793.027,162.094 792.027,161.427 790.5,161.5C 776.244,147.987 768.078,131.32 766,111.5C 763.967,93.6794 765.967,76.3461 772,59.5C 773.608,55.9439 775.441,52.6106 777.5,49.5C 778.906,49.0269 779.573,48.0269 779.5,46.5C 779.738,44.5956 780.738,43.2623 782.5,42.5C 783.906,42.0269 784.573,41.0269 784.5,39.5C 785.5,37.8333 786.833,36.5 788.5,35.5C 791.427,34.2427 793.761,32.2427 795.5,29.5C 801.226,24.2998 807.893,20.6332 815.5,18.5C 818.152,18.5905 820.485,17.9238 822.5,16.5C 841.977,11.3444 861.643,11.1777 881.5,16C 887.726,17.4554 893.392,19.9554 898.5,23.5 Z"/></g>
<g><path style="opacity:1" fill="#ea8c62" d="M 1182.5,47.5 C 1180.49,46.0762 1178.15,45.4095 1175.5,45.5C 1168.38,44.4118 1161.21,43.7451 1154,43.5C 1148.33,43.2538 1142.83,44.0871 1137.5,46C 1126.59,53.8984 1125.92,62.5651 1135.5,72C 1138.17,73.3333 1140.83,74.6667 1143.5,76C 1159.74,80.1909 1175.08,86.5242 1189.5,95C 1197.12,100.096 1202.46,106.929 1205.5,115.5C 1205.41,118.152 1206.08,120.485 1207.5,122.5C 1212.54,157.178 1197.54,177.011 1162.5,182C 1148.68,184.281 1135.01,183.781 1121.5,180.5C 1119.49,179.076 1117.15,178.41 1114.5,178.5C 1108.21,177.236 1102.21,175.069 1096.5,172C 1091.84,167.861 1090.01,162.695 1091,156.5C 1091.65,145.84 1097.15,141.006 1107.5,142C 1122.23,149.979 1137.9,153.146 1154.5,151.5C 1156.7,151.88 1158.36,151.213 1159.5,149.5C 1159.84,148.662 1160.51,148.328 1161.5,148.5C 1163.03,148.573 1164.03,147.906 1164.5,146.5C 1165.91,146.027 1166.57,145.027 1166.5,143.5C 1168.6,138.269 1168.93,132.936 1167.5,127.5C 1167.71,125.821 1167.05,124.821 1165.5,124.5C 1162.96,121.81 1159.96,119.643 1156.5,118C 1142.08,114.112 1128.41,108.612 1115.5,101.5C 1115.03,100.094 1114.03,99.427 1112.5,99.5C 1112.03,98.0937 1111.03,97.427 1109.5,97.5C 1109.03,96.0937 1108.03,95.427 1106.5,95.5C 1102.17,93.1667 1098.83,89.8333 1096.5,85.5C 1096.71,83.8212 1096.05,82.8212 1094.5,82.5C 1086.54,67.4076 1086.54,52.4076 1094.5,37.5C 1095.91,37.0269 1096.57,36.0269 1096.5,34.5C 1097.42,31.9108 1099.09,29.9108 1101.5,28.5C 1103.75,27.9202 1105.42,26.5869 1106.5,24.5C 1110.06,20.8846 1114.39,18.5512 1119.5,17.5C 1122.15,17.5905 1124.49,16.9238 1126.5,15.5C 1129.9,14.0749 1133.57,13.2415 1137.5,13C 1157.71,10.9852 1177.38,13.3185 1196.5,20C 1202.05,24.6182 1203.89,30.4515 1202,37.5C 1199.58,48.9581 1193.08,52.2915 1182.5,47.5 Z"/></g>
<g><path style="opacity:1" fill="#ed8e63" d="M 141.5,15.5 C 141.821,17.0481 142.821,17.7148 144.5,17.5C 148.781,20.9168 150.448,25.4168 149.5,31C 150.377,38.5842 147.377,43.9176 140.5,47C 128.258,47.1772 116.091,47.6772 104,48.5C 103.989,90.5839 103.322,132.584 102,174.5C 100.127,176.709 97.96,178.542 95.5,180C 87.5,180.667 79.5,180.667 71.5,180C 67.8187,178.163 65.4853,175.33 64.5,171.5C 65.1611,129.82 64.4944,88.4865 62.5,47.5C 50.4954,47.6665 38.4954,47.4999 26.5,47C 22.3333,45.5 19.5,42.6667 18,38.5C 17.3333,33.5 17.3333,28.5 18,23.5C 18.2784,22.5842 18.7784,21.9175 19.5,21.5C 20.9063,21.0269 21.573,20.0269 21.5,18.5C 23.0269,18.573 24.0269,17.9063 24.5,16.5C 25.2625,15.7321 26.2625,15.2321 27.5,15C 65.5415,14.1791 103.541,14.3458 141.5,15.5 Z"/></g>
<g><path style="opacity:0.945" fill="#8f563c" d="M 230.5,14.5 C 228.485,15.9238 226.152,16.5905 223.5,16.5C 225.515,15.0762 227.848,14.4095 230.5,14.5 Z"/></g>
<g><path style="opacity:1" fill="#e98b62" d="M 469.5,82.5 C 486.468,84.486 503.801,85.1527 521.5,84.5C 527.61,86.8768 530.276,91.3768 529.5,98C 530.076,104.181 527.743,108.848 522.5,112C 504.902,113.459 487.236,113.959 469.5,113.5C 469.964,133.567 469.464,153.567 468,173.5C 466.5,176.333 464.333,178.5 461.5,180C 453.323,180.823 445.323,180.656 437.5,179.5C 437.027,178.094 436.027,177.427 434.5,177.5C 432.016,175.88 430.516,173.547 430,170.5C 429.333,121.833 429.333,73.1667 430,24.5C 431.833,20 435,16.8333 439.5,15C 467.833,14.3333 496.167,14.3333 524.5,15C 533.463,19.438 536.63,26.6047 534,36.5C 532.5,41.3333 529.333,44.5 524.5,46C 506.17,46.4999 487.836,46.6666 469.5,46.5C 469.5,58.5 469.5,70.5 469.5,82.5 Z"/></g>
<g><path style="opacity:1" fill="#ea8c62" d="M 966.5,19.5 C 966.427,21.0269 967.094,22.0269 968.5,22.5C 969.332,54.3307 969.832,86.3307 970,118.5C 970.292,125.794 971.792,132.794 974.5,139.5C 974.427,141.027 975.094,142.027 976.5,142.5C 987.297,152.185 999.297,153.852 1012.5,147.5C 1015.17,146.833 1016.83,145.167 1017.5,142.5C 1018.91,142.027 1019.57,141.027 1019.5,139.5C 1022.42,132.143 1023.92,124.476 1024,116.5C 1024.33,85.1667 1024.67,53.8333 1025,22.5C 1029.25,15.6286 1035.42,12.9619 1043.5,14.5C 1051.58,12.9619 1057.75,15.6286 1062,22.5C 1063.64,54.1188 1063.97,85.7855 1063,117.5C 1061.61,160.395 1039.44,182.395 996.5,183.5C 952.642,182.141 930.476,159.475 930,115.5C 929.833,100.833 929.667,86.1667 929.5,71.5C 929.371,55.1241 929.871,38.7908 931,22.5C 932.892,18.9421 935.725,16.4421 939.5,15C 946.5,14.3333 953.5,14.3333 960.5,15C 963.106,15.7918 965.106,17.2918 966.5,19.5 Z"/></g>
<g><path style="opacity:0.957" fill="#734633" d="M 141.5,15.5 C 142.71,15.9321 143.71,16.5987 144.5,17.5C 142.821,17.7148 141.821,17.0481 141.5,15.5 Z"/></g>
<g><path style="opacity:0.949" fill="#92583e" d="M 1126.5,15.5 C 1124.49,16.9238 1122.15,17.5905 1119.5,17.5C 1121.51,16.0762 1123.85,15.4095 1126.5,15.5 Z"/></g>
<g><path style="opacity:0.71" fill="#643d2c" d="M 24.5,16.5 C 24.0269,17.9063 23.0269,18.573 21.5,18.5C 21.9731,17.0937 22.9731,16.427 24.5,16.5 Z"/></g>
<g><path style="opacity:0.937" fill="#8f563d" d="M 223.5,16.5 C 221.485,17.9238 219.152,18.5905 216.5,18.5C 218.515,17.0762 220.848,16.4095 223.5,16.5 Z"/></g>
<g><path style="opacity:0.937" fill="#8f563d" d="M 822.5,16.5 C 820.485,17.9238 818.152,18.5905 815.5,18.5C 817.515,17.0762 819.848,16.4095 822.5,16.5 Z"/></g>
<g><path style="opacity:0.737" fill="#613c2b" d="M 21.5,18.5 C 21.573,20.0269 20.9063,21.0269 19.5,21.5C 19.427,19.9731 20.0937,18.9731 21.5,18.5 Z"/></g>
<g><path style="opacity:0.361" fill="#513124" d="M 966.5,19.5 C 967.906,19.9731 968.573,20.9731 968.5,22.5C 967.094,22.0269 966.427,21.0269 966.5,19.5 Z"/></g>
<g><path style="opacity:0.847" fill="#714532" d="M 898.5,23.5 C 899.906,23.9731 900.573,24.9731 900.5,26.5C 899.094,26.0269 898.427,25.0269 898.5,23.5 Z"/></g>
<g><path style="opacity:0.914" fill="#8a533a" d="M 1106.5,24.5 C 1105.42,26.5869 1103.75,27.9202 1101.5,28.5C 1102.58,26.4131 1104.25,25.0798 1106.5,24.5 Z"/></g>
<g><path style="opacity:0.925" fill="#94593e" d="M 197.5,29.5 C 195.761,32.2427 193.427,34.2427 190.5,35.5C 192.239,32.7573 194.573,30.7573 197.5,29.5 Z"/></g>
<g><path style="opacity:0.906" fill="#8d543c" d="M 795.5,29.5 C 793.761,32.2427 791.427,34.2427 788.5,35.5C 790.239,32.7573 792.573,30.7573 795.5,29.5 Z"/></g>
<g><path style="opacity:0.525" fill="#6c412e" d="M 1096.5,34.5 C 1096.57,36.0269 1095.91,37.0269 1094.5,37.5C 1094.43,35.9731 1095.09,34.9731 1096.5,34.5 Z"/></g>
<g><path style="opacity:0.725" fill="#603b2b" d="M 186.5,39.5 C 186.573,41.0269 185.906,42.0269 184.5,42.5C 184.427,40.9731 185.094,39.9731 186.5,39.5 Z"/></g>
<g><path style="opacity:0.753" fill="#643d2c" d="M 784.5,39.5 C 784.573,41.0269 783.906,42.0269 782.5,42.5C 782.427,40.9731 783.094,39.9731 784.5,39.5 Z"/></g>
<g><path style="opacity:0.914" fill="#834f37" d="M 1175.5,45.5 C 1178.15,45.4095 1180.49,46.0762 1182.5,47.5C 1179.85,47.5905 1177.51,46.9238 1175.5,45.5 Z"/></g>
<g><path style="opacity:0.427" fill="#5c3827" d="M 181.5,46.5 C 181.573,48.0269 180.906,49.0269 179.5,49.5C 179.427,47.9731 180.094,46.9731 181.5,46.5 Z"/></g>
<g><path style="opacity:0.478" fill="#653d2c" d="M 779.5,46.5 C 779.573,48.0269 778.906,49.0269 777.5,49.5C 777.427,47.9731 778.094,46.9731 779.5,46.5 Z"/></g>
<g><path style="opacity:0.69" fill="#a36145" d="M 62.5,47.5 C 64.4944,88.4865 65.1611,129.82 64.5,171.5C 63.8279,130.264 63.1613,88.931 62.5,47.5 Z"/></g>
<g><path style="opacity:0.427" fill="#5b3727" d="M 273.5,49.5 C 275.027,49.427 276.027,50.0937 276.5,51.5C 274.973,51.573 273.973,50.9063 273.5,49.5 Z"/></g>
<g><path style="opacity:0.725" fill="#623b2b" d="M 276.5,51.5 C 278.027,51.427 279.027,52.0937 279.5,53.5C 277.973,53.573 276.973,52.9063 276.5,51.5 Z"/></g>
<g><path style="opacity:0.76" fill="#1f5855" d="M 662.5,58.5 C 657.833,58.5 653.167,58.5 648.5,58.5C 648.5,74.8333 648.5,91.1667 648.5,107.5C 647.503,91.0084 647.17,74.3417 647.5,57.5C 652.695,57.1795 657.695,57.5128 662.5,58.5 Z"/></g>
<g><path style="opacity:1" fill="#2c7976" d="M 662.5,58.5 C 662.167,72.1829 662.501,85.8496 663.5,99.5C 674.999,106.082 686.333,112.915 697.5,120C 694.874,124.084 692.374,128.25 690,132.5C 675.854,124.518 662.021,116.185 648.5,107.5C 648.5,91.1667 648.5,74.8333 648.5,58.5C 653.167,58.5 657.833,58.5 662.5,58.5 Z"/></g>
<g><path style="opacity:0.957" fill="#724532" d="M 1094.5,82.5 C 1096.05,82.8212 1096.71,83.8212 1096.5,85.5C 1095.6,84.7095 1094.93,83.7095 1094.5,82.5 Z"/></g>
<g><path style="opacity:0.784" fill="#b26a4a" d="M 469.5,82.5 C 486.931,83.1537 504.265,83.8203 521.5,84.5C 503.801,85.1527 486.468,84.486 469.5,82.5 Z"/></g>
<g><path style="opacity:0.251" fill="#0b1e1d" d="M 569.5,89.5 C 569.5,92.1667 569.5,94.8333 569.5,97.5C 559.652,97.1729 549.986,97.5062 540.5,98.5C 539.957,98.44 539.624,98.1067 539.5,97.5C 549.144,96.5016 558.81,96.1682 568.5,96.5C 568.198,93.9407 568.532,91.6074 569.5,89.5 Z"/></g>
<g><path style="opacity:0.251" fill="#0d2524" d="M 589.5,88.5 C 589.5,91.1667 589.5,93.8333 589.5,96.5C 599.19,96.1682 608.856,96.5016 618.5,97.5C 618.376,98.1067 618.043,98.44 617.5,98.5C 608.014,97.5062 598.348,97.1729 588.5,97.5C 588.19,94.2869 588.523,91.2869 589.5,88.5 Z"/></g>
<g><path style="opacity:0.549" fill="#683f2d" d="M 1106.5,95.5 C 1108.03,95.427 1109.03,96.0937 1109.5,97.5C 1107.97,97.573 1106.97,96.9063 1106.5,95.5 Z"/></g>
<g><path style="opacity:0.561" fill="#714430" d="M 1109.5,97.5 C 1111.03,97.427 1112.03,98.0937 1112.5,99.5C 1110.97,99.573 1109.97,98.9063 1109.5,97.5 Z"/></g>
<g><path style="opacity:0.384" fill="#573526" d="M 1112.5,99.5 C 1114.03,99.427 1115.03,100.094 1115.5,101.5C 1113.97,101.573 1112.97,100.906 1112.5,99.5 Z"/></g>
<g><path style="opacity:0.945" fill="#7d4b35" d="M 1205.5,115.5 C 1206.92,117.515 1207.59,119.848 1207.5,122.5C 1206.08,120.485 1205.41,118.152 1205.5,115.5 Z"/></g>
<g><path style="opacity:0.886" fill="#633d2c" d="M 1165.5,124.5 C 1167.05,124.821 1167.71,125.821 1167.5,127.5C 1166.6,126.71 1165.93,125.71 1165.5,124.5 Z"/></g>
<g><path style="opacity:0.529" fill="#643d2b" d="M 215.5,132.5 C 216.906,132.973 217.573,133.973 217.5,135.5C 216.094,135.027 215.427,134.027 215.5,132.5 Z"/></g>
<g><path style="opacity:0.588" fill="#613c2a" d="M 284.5,136.5 C 284.262,138.404 283.262,139.738 281.5,140.5C 281.738,138.596 282.738,137.262 284.5,136.5 Z"/></g>
<g><path style="opacity:0.937" fill="#704431" d="M 176.5,141.5 C 178.048,141.821 178.715,142.821 178.5,144.5C 177.599,143.71 176.932,142.71 176.5,141.5 Z"/></g>
<g><path style="opacity:0.412" fill="#553425" d="M 974.5,139.5 C 975.906,139.973 976.573,140.973 976.5,142.5C 975.094,142.027 974.427,141.027 974.5,139.5 Z"/></g>
<g><path style="opacity:0.408" fill="#553425" d="M 1019.5,139.5 C 1019.57,141.027 1018.91,142.027 1017.5,142.5C 1017.43,140.973 1018.09,139.973 1019.5,139.5 Z"/></g>
<g><path style="opacity:0.941" fill="#704431" d="M 826.5,142.5 C 827.71,142.932 828.71,143.599 829.5,144.5C 827.821,144.715 826.821,144.048 826.5,142.5 Z"/></g>
<g><path style="opacity:0.937" fill="#6c4230" d="M 226.5,143.5 C 227.71,143.932 228.71,144.599 229.5,145.5C 227.821,145.715 226.821,145.048 226.5,143.5 Z"/></g>
<g><path style="opacity:0.824" fill="#8b543b" d="M 1017.5,142.5 C 1016.83,145.167 1015.17,146.833 1012.5,147.5C 1013.83,145.5 1015.5,143.833 1017.5,142.5 Z"/></g>
<g><path style="opacity:0.776" fill="#6d422f" d="M 1166.5,143.5 C 1166.57,145.027 1165.91,146.027 1164.5,146.5C 1164.43,144.973 1165.09,143.973 1166.5,143.5 Z"/></g>
<g><path style="opacity:0.722" fill="#6f4330" d="M 1164.5,146.5 C 1164.03,147.906 1163.03,148.573 1161.5,148.5C 1161.97,147.094 1162.97,146.427 1164.5,146.5 Z"/></g>
<g><path style="opacity:0.984" fill="#714431" d="M 181.5,149.5 C 183.446,150.035 184.446,151.368 184.5,153.5C 183.026,152.564 182.026,151.23 181.5,149.5 Z"/></g>
<g><path style="opacity:0.98" fill="#865039" d="M 872.5,149.5 C 869.155,151.217 865.489,151.884 861.5,151.5C 864.974,150.475 868.64,149.808 872.5,149.5 Z"/></g>
<g><path style="opacity:0.882" fill="#6f4330" d="M 1159.5,149.5 C 1158.36,151.213 1156.7,151.88 1154.5,151.5C 1155.93,150.463 1157.6,149.796 1159.5,149.5 Z"/></g>
<g><path style="opacity:0.702" fill="#5f3a2a" d="M 790.5,161.5 C 792.027,161.427 793.027,162.094 793.5,163.5C 791.973,163.573 790.973,162.906 790.5,161.5 Z"/></g>
<g><path style="opacity:0.502" fill="#5e3a29" d="M 795.5,165.5 C 797.027,165.427 798.027,166.094 798.5,167.5C 796.973,167.573 795.973,166.906 795.5,165.5 Z"/></g>
<g><path style="opacity:0.549" fill="#6e422f" d="M 798.5,167.5 C 800.027,167.427 801.027,168.094 801.5,169.5C 799.973,169.573 798.973,168.906 798.5,167.5 Z"/></g>
<g><path style="opacity:0.443" fill="#5a3727" d="M 200.5,168.5 C 202.027,168.427 203.027,169.094 203.5,170.5C 201.973,170.573 200.973,169.906 200.5,168.5 Z"/></g>
<g><path style="opacity:0.4" fill="#5a3727" d="M 801.5,169.5 C 803.027,169.427 804.027,170.094 804.5,171.5C 802.973,171.573 801.973,170.906 801.5,169.5 Z"/></g>
<g><path style="opacity:0.341" fill="#4c2f22" d="M 434.5,177.5 C 436.027,177.427 437.027,178.094 437.5,179.5C 435.973,179.573 434.973,178.906 434.5,177.5 Z"/></g>
<g><path style="opacity:0.749" fill="#885239" d="M 221.5,178.5 C 224.152,178.41 226.485,179.076 228.5,180.5C 225.848,180.59 223.515,179.924 221.5,178.5 Z"/></g>
<g><path style="opacity:0.694" fill="#804c35" d="M 821.5,178.5 C 824.152,178.41 826.485,179.076 828.5,180.5C 825.848,180.59 823.515,179.924 821.5,178.5 Z"/></g>
<g><path style="opacity:0.675" fill="#784832" d="M 1114.5,178.5 C 1117.15,178.41 1119.49,179.076 1121.5,180.5C 1118.85,180.59 1116.51,179.924 1114.5,178.5 Z"/></g>
</svg>
