<svg width="25" height="25" viewBox="0 0 25 25" fill="none" xmlns="http://www.w3.org/2000/svg">
<g clip-path="url(#clip0_74_111)">
<path d="M3.03271 6.30969V22.3097H21.0327V24.3097H3.03271C2.50228 24.3097 1.99357 24.099 1.6185 23.7239C1.24343 23.3488 1.03271 22.8401 1.03271 22.3097V6.30969H3.03271ZM16.0327 9.30969H21.5327L16.0327 3.80969V9.30969ZM7.03271 2.30969H17.0327L23.0327 8.30969V18.3097C23.0327 18.8401 22.822 19.3488 22.4469 19.7239C22.0719 20.099 21.5631 20.3097 21.0327 20.3097H7.03271C5.92271 20.3097 5.03271 19.4097 5.03271 18.3097V4.30969C5.03271 3.77926 5.24343 3.27055 5.6185 2.89548C5.99357 2.52041 6.50228 2.30969 7.03271 2.30969M7.03271 4.30969V18.3097H21.0327V11.3097H14.0327V4.30969H7.03271Z" fill="white"/>
</g>
<defs>
<clipPath id="clip0_74_111">
<rect width="24" height="24" fill="white" transform="translate(0.0327148 0.309692)"/>
</clipPath>
</defs>
</svg>
